<svg id="svg" version="1.1" xmlns="http://www.w3.org/2000/svg" xmlns:xlink="http://www.w3.org/1999/xlink" width="400" height="400" viewBox="0, 0, 400,400"><g id="svgg"><path id="path0" d="M176.687 2.877 C 12.026 23.267,-57.135 223.608,60.037 340.781 C 172.380 453.124,364.777 394.779,395.443 239.068 C 421.518 106.671,310.087 -13.642,176.687 2.877 M228.630 61.308 C 318.687 80.879,367.147 176.531,329.116 259.653 C 296.665 330.580,212.418 361.716,141.165 329.116 C 70.238 296.665,39.102 212.418,71.702 141.165 C 91.155 98.647,129.566 69.231,177.096 60.453 C 188.873 58.277,216.819 58.741,228.630 61.308 M249.097 153.766 L 241.787 161.110 226.619 161.332 L 211.452 161.554 211.452 177.096 L 211.452 192.638 222.699 192.866 L 233.947 193.093 233.947 218.837 L 233.947 244.581 264.213 244.581 L 294.479 244.581 294.479 218.837 L 294.479 193.093 305.726 192.866 L 316.973 192.638 316.973 177.096 L 316.973 161.554 301.806 161.332 L 286.639 161.110 279.328 153.766 L 272.018 146.421 264.213 146.421 L 256.408 146.421 249.097 153.766 M270.757 170.552 C 270.757 182.924,271.017 193.047,271.336 193.047 C 271.654 193.047,273.311 191.684,275.017 190.018 L 278.119 186.989 278.119 214.967 L 278.119 242.945 264.213 242.945 L 250.307 242.945 250.307 214.967 L 250.307 186.989 253.409 190.018 C 255.115 191.684,256.771 193.047,257.090 193.047 C 257.408 193.047,257.669 182.924,257.669 170.552 L 257.669 148.057 264.213 148.057 L 270.757 148.057 270.757 170.552 M256.033 169.919 L 256.033 189.328 249.489 182.822 L 242.945 176.316 242.945 169.771 L 242.945 163.226 249.265 156.869 C 252.741 153.372,255.686 150.511,255.809 150.511 C 255.932 150.511,256.033 159.245,256.033 169.919 M285.481 168.098 L 285.481 173.045 278.732 179.569 L 271.984 186.094 277.914 179.940 C 283.238 174.415,284.963 171.779,283.253 171.779 C 282.928 171.779,280.260 174.080,277.324 176.892 C 272.080 181.914,272.064 181.923,276.377 177.381 C 280.218 173.336,281.891 168.988,278.534 171.774 C 277.745 172.429,277.360 172.385,277.083 171.609 C 276.816 170.858,276.026 171.144,274.351 172.597 C 272.370 174.317,272.240 174.352,273.532 172.819 C 274.924 171.168,274.942 170.947,273.731 170.482 C 272.594 170.045,272.393 168.479,272.393 160.054 L 272.393 150.141 278.937 156.646 L 285.481 163.152 285.481 168.098 M100.430 160.719 C 69.857 169.135,68.564 224.502,98.773 231.678 C 103.699 232.848,104.014 233.356,100.673 234.740 C 97.039 236.246,95.357 238.366,96.829 239.587 C 97.752 240.353,98.629 240.123,101.054 238.477 C 105.499 235.461,106.742 235.757,108.508 240.249 C 113.214 252.224,116.358 255.532,123.933 256.478 C 134.749 257.829,143.107 252.006,143.145 243.092 C 143.155 240.599,139.567 242.527,138.852 245.399 C 137.193 252.053,134.079 251.322,130.470 243.431 C 127.386 236.690,125.768 235.015,120.968 233.598 L 117.468 232.565 121.515 232.020 C 152.936 227.793,156.103 170.638,125.442 161.167 C 119.160 159.227,106.664 159.003,100.430 160.719 M151.329 161.963 C 151.329 163.327,151.875 163.599,154.601 163.599 L 157.873 163.599 157.873 196.728 L 157.873 229.857 154.601 229.857 C 152.238 229.857,151.329 230.198,151.329 231.084 C 151.329 232.141,154.101 232.311,171.370 232.311 C 188.639 232.311,191.411 232.141,191.411 231.084 C 191.411 230.102,190.184 229.857,185.276 229.857 L 179.141 229.857 179.141 214.724 L 179.141 199.591 182.712 199.591 C 188.176 199.591,192.406 203.893,194.174 211.247 C 194.538 212.762,195.243 213.497,196.335 213.497 C 197.893 213.497,197.955 212.902,197.955 197.955 C 197.955 183.647,197.840 182.413,196.511 182.413 C 195.521 182.413,194.619 183.674,193.643 186.423 C 191.629 192.092,187.555 195.501,182.794 195.501 L 179.141 195.501 179.141 179.550 L 179.141 163.599 182.932 163.599 C 191.966 163.599,197.447 167.489,201.636 176.872 C 206.210 187.118,207.508 184.790,206.416 168.303 L 205.888 160.327 178.609 160.327 C 151.875 160.327,151.329 160.360,151.329 161.963 M116.917 163.396 C 122.898 166.443,124.908 177.477,124.032 202.454 C 123.255 224.629,121.266 229.685,113.009 230.478 C 101.656 231.569,98.176 221.154,99.272 189.366 C 100.093 165.537,105.501 157.579,116.917 163.396 M233.947 177.096 L 233.947 190.593 223.722 190.593 L 213.497 190.593 213.497 177.096 L 213.497 163.599 223.722 163.599 L 233.947 163.599 233.947 177.096 M241.309 170.791 L 241.309 177.982 244.990 181.595 L 248.671 185.208 248.671 214.076 L 248.671 242.945 242.127 242.945 L 235.583 242.945 235.583 203.272 L 235.583 163.599 238.446 163.599 L 241.309 163.599 241.309 170.791 M292.843 203.272 L 292.843 242.945 286.299 242.945 L 279.755 242.945 279.755 214.076 L 279.755 185.208 283.436 181.595 L 287.117 177.982 287.117 170.791 L 287.117 163.599 289.980 163.599 L 292.843 163.599 292.843 203.272 M301.446 166.856 C 296.832 171.581,298.512 171.815,304.051 167.219 L 308.793 163.282 303.681 168.575 C 300.869 171.486,298.569 174.134,298.569 174.460 C 298.569 176.169,301.204 174.445,306.729 169.121 L 312.883 163.190 306.544 169.752 C 300.856 175.639,299.058 178.323,300.801 178.323 C 301.129 178.323,304.534 175.286,308.367 171.575 L 315.336 164.826 309.406 170.980 C 306.145 174.365,303.476 177.402,303.476 177.729 C 303.476 179.339,305.941 177.878,310.405 173.620 L 315.337 168.916 311.043 173.441 C 306.444 178.287,305.807 179.578,308.345 178.914 C 309.223 178.685,310.093 178.918,310.278 179.432 C 310.484 180.005,311.492 179.575,312.879 178.323 L 315.143 176.278 314.013 178.225 C 313.127 179.753,313.104 180.253,313.906 180.543 C 314.567 180.783,314.928 182.624,314.928 185.753 L 314.928 190.593 304.703 190.593 L 294.479 190.593 294.479 177.096 L 294.479 163.599 299.553 163.599 L 304.626 163.599 301.446 166.856 " stroke="none" fill="#000000" fill-rule="evenodd"></path></g></svg>